<?xml version="1.0" encoding="utf-8"?>
<svg viewBox="109.778 167.174 270.414 168.438" xmlns="http://www.w3.org/2000/svg">
  <path style="stroke: rgb(0, 0, 0); fill: rgb(255, 255, 255);" d="M 221.419 172.967 L 221.683 179.549 C 221.683 179.549 223.262 181.392 221.419 186.395 C 219.576 191.398 215.627 197.191 211.414 199.56 C 207.201 201.929 203.778 206.933 197.985 207.723 C 192.192 208.513 186.4 209.829 181.66 210.619 C 176.92 211.409 168.758 214.832 161.912 216.412 C 155.066 217.992 149.01 219.572 144.534 221.678 C 140.058 223.784 131.106 233.264 128.473 235.107 C 125.84 236.95 117.414 242.742 115.571 246.692 C 113.728 250.642 112.674 256.434 112.148 261.437 C 111.622 266.44 111.358 272.759 111.621 276.445 C 111.884 280.131 112.674 286.978 112.938 289.611 C 113.202 292.244 112.148 296.457 112.148 299.88 C 112.148 303.303 110.041 306.462 112.148 311.465 C 114.255 316.468 117.677 318.311 118.73 321.734 C 119.783 325.157 120.047 327.79 120.574 328.58 C 121.101 329.37 123.996 330.423 126.366 330.95 C 128.736 331.477 131.632 332.793 137.688 332.793 C 143.744 332.793 144.534 334.636 147.431 332.793 C 150.328 330.95 152.433 330.423 156.12 329.633 C 159.807 328.843 161.122 326.737 165.599 325.947 C 170.076 325.157 177.184 325.683 182.713 324.367 C 188.242 323.051 198.248 320.154 204.568 319.891 C 210.888 319.628 214.573 318.311 220.629 319.891 C 226.685 321.471 228.002 322.787 233.531 323.314 C 239.06 323.841 249.33 324.63 253.542 324.894 C 257.754 325.158 266.444 325.947 273.554 326.737 C 280.664 327.527 303.834 328.317 305.15 328.317 C 306.466 328.317 321.475 328.58 326.741 329.37 C 332.007 330.16 344.909 327.263 352.282 325.947 C 359.655 324.631 368.87 324.104 371.766 321.207 C 374.662 318.31 378.875 320.417 379.402 316.468 C 379.929 312.519 379.139 306.726 374.926 305.936 C 370.713 305.146 361.761 305.936 357.021 305.672 C 352.281 305.408 351.755 304.356 352.545 301.986 C 353.335 299.616 356.758 296.983 352.808 295.667 C 348.858 294.351 348.069 294.877 342.803 295.93 C 337.537 296.983 339.906 298.563 333.587 299.353 C 327.268 300.143 330.164 301.459 324.371 298.826 C 318.578 296.193 318.052 297.773 310.943 291.717 C 303.834 285.661 301.464 283.818 300.147 280.132 C 298.83 276.446 300.147 280.395 295.408 271.179 C 290.669 261.963 292.512 264.86 287.245 256.434 C 281.978 248.008 280.926 247.219 279.083 241.163 C 277.24 235.107 276.713 233.264 276.45 225.628 C 276.187 217.992 271.447 214.569 275.66 214.306 C 279.873 214.043 282.769 214.042 286.719 214.042 C 290.669 214.042 293.828 215.622 293.828 211.936 C 293.828 208.25 295.934 208.25 292.512 205.617 C 289.09 202.984 286.456 202.194 283.296 200.087 C 280.136 197.98 272.237 194.294 268.024 191.925 C 263.811 189.556 263.548 189.028 258.809 186.395 C 254.07 183.762 248.803 180.076 245.907 178.233 C 243.011 176.39 240.64 174.81 238.271 173.23 C 235.902 171.65 230.635 169.807 226.949 169.544 C 223.263 169.281 223.262 170.597 221.419 172.967 Z"/>
  <g transform="matrix(0.1, 0, 0, -0.1, 90.07019, 346.393951)" fill="#000000" stroke="none">
    <path d="M1368 1729 c-25 -14 -22 -32 8 -68 l26 -31 -36 -31 c-29 -27 -33 -35 -25 -51 13 -24 -13 -68 -39 -68 -28 0 -56 -25 -49 -43 6 -15 9 -15 43 -1 27 11 35 12 32 2 -3 -7 -24 -18 -48 -25 -24 -7 -50 -19 -59 -27 -9 -7 -34 -17 -55 -21 -29 -5 -36 -9 -25 -16 14 -9 -30 -14 -95 -12 -22 1 -26 -1 -15 -9 10 -7 4 -8 -21 -4 -22 4 -30 3 -21 -3 16 -10 -69 -29 -132 -29 -21 0 -48 -7 -62 -16 -13 -9 -31 -16 -39 -16 -8 0 -31 -9 -50 -21 -22 -13 -43 -18 -56 -14 -14 4 -20 2 -20 -8 0 -7 -22 -26 -49 -40 -27 -15 -84 -62 -128 -104 -43 -43 -103 -99 -132 -124 -30 -25 -55 -55 -56 -65 0 -11 -5 -26 -10 -34 -5 -9 -4 -15 3 -18 8 -2 12 -29 13 -70 2 -78 11 -128 25 -125 5 1 8 -42 6 -104 -2 -73 0 -108 8 -113 7 -4 -3 -10 -24 -14 -20 -4 -36 -11 -36 -16 0 -11 58 -69 64 -63 2 3 10 -5 16 -17 9 -17 14 -19 20 -10 6 10 11 10 23 -1 13 -12 12 -17 -9 -42 -28 -33 -32 -62 -8 -53 9 3 18 6 20 6 2 0 4 10 4 23 0 33 60 70 105 65 20 -2 62 1 93 7 63 13 130 5 165 -20 20 -14 18 -15 -43 -15 -36 0 -81 -5 -101 -10 -42 -12 -89 -54 -89 -81 0 -25 16 -24 23 1 6 21 6 22 172 45 66 10 174 28 240 42 66 13 134 26 150 28 17 2 65 9 109 16 60 9 80 9 85 0 5 -7 12 -11 17 -10 5 1 26 1 47 0 26 -1 36 -5 31 -12 -7 -12 46 -8 79 6 12 5 17 3 17 -9 0 -14 6 -16 35 -10 23 4 35 2 35 -5 0 -8 24 -10 76 -6 41 3 73 2 71 -3 -3 -4 16 -8 41 -8 26 -1 175 -7 332 -14 300 -13 462 -5 558 26 24 8 60 14 80 13 21 0 65 7 100 17 58 16 63 19 60 43 -3 25 -7 26 -78 33 -41 3 -80 2 -85 -2 -6 -5 -28 -5 -50 0 -22 5 -55 10 -72 10 -38 0 -41 9 -13 35 11 10 20 26 20 37 0 31 -37 20 -86 -26 l-47 -43 -66 17 c-203 54 -322 135 -455 314 -90 120 -129 266 -142 531 -8 157 -7 159 80 131 64 -20 76 -20 76 -3 0 23 -31 44 -110 77 -41 17 -88 37 -105 44 -16 8 -38 17 -47 20 -10 3 -18 12 -18 20 0 9 -19 19 -52 26 -64 15 -77 25 -71 50 4 17 -1 19 -48 22 l-54 3 0 43 c0 56 -32 78 -77 51z m54 -24 c-4 -16 -52 -26 -52 -11 0 7 3 16 7 20 10 10 48 3 45 -9z m18 -125 c0 -12 -40 -34 -47 -26 -9 8 17 36 33 36 8 0 14 -4 14 -10z m93 -29 c11 -11 -3 -41 -19 -41 -13 0 -44 37 -44 53 0 10 50 0 63 -12z m-60 -31 c-4 -4 -25 -10 -46 -13 -46 -7 -47 15 -1 24 33 6 59 0 47 -11z m127 -19 c0 -5 3 -17 7 -27 4 -11 3 -15 -5 -10 -6 3 -15 -1 -21 -11 -9 -17 -11 -16 -31 2 -12 11 -24 15 -28 10 -4 -6 -29 -10 -57 -10 -27 -1 -62 -5 -77 -9 -18 -5 -28 -4 -28 2 0 14 23 21 114 38 43 7 81 16 84 19 9 9 42 6 42 -4z m164 -47 c36 -5 46 -11 46 -25 0 -10 -10 -25 -22 -33 -28 -18 -124 -43 -198 -51 -30 -4 -86 -20 -124 -37 -47 -21 -71 -28 -74 -20 -6 18 -52 15 -52 -3 0 -21 -33 -19 -53 3 -13 14 -14 21 -5 30 9 9 8 12 -5 12 -20 0 -37 -29 -34 -59 1 -16 11 -24 38 -31 31 -9 36 -14 32 -33 -3 -17 3 -31 24 -48 18 -15 27 -32 25 -45 -3 -20 36 -102 64 -134 7 -8 19 -44 27 -78 10 -45 24 -73 46 -96 23 -23 31 -41 31 -67 0 -36 21 -74 52 -97 10 -7 18 -25 18 -39 0 -32 60 -93 92 -93 13 0 34 7 46 16 12 8 22 11 22 5 0 -5 -6 -12 -12 -14 -8 -4 -4 -8 10 -12 12 -4 22 -14 22 -22 0 -9 -6 -13 -15 -9 -8 3 -15 1 -15 -4 0 -6 5 -10 10 -10 13 0 13 -27 0 -32 -6 -2 -6 -8 0 -18 8 -13 10 -13 10 1 0 9 6 22 13 28 11 8 18 6 32 -9 18 -20 18 -21 -3 -27 -35 -9 -26 -25 10 -17 28 6 31 5 20 -8 -10 -13 -7 -17 18 -28 17 -7 33 -10 36 -7 3 3 14 -3 25 -14 21 -21 45 -26 33 -7 -5 8 -2 9 10 5 10 -4 35 -10 57 -13 22 -4 42 -11 46 -17 6 -10 -37 -6 -82 7 -11 4 -6 0 11 -8 26 -13 307 -42 340 -35 5 1 18 0 29 -1 49 -6 -67 -18 -125 -14 -197 16 -367 55 -397 91 -8 10 -12 12 -8 6 9 -18 -3 -16 -41 7 -18 12 -35 29 -39 39 -3 9 -23 27 -45 40 -21 12 -49 35 -60 52 -13 17 -27 26 -33 23 -7 -4 -9 -4 -6 -1 8 9 -96 117 -113 117 -8 0 -19 5 -26 12 -9 9 -12 9 -12 0 0 -6 -6 -9 -13 -6 -10 4 -17 -13 -25 -63 -6 -37 -14 -83 -18 -100 -5 -27 -3 -33 11 -33 13 0 16 -6 12 -26 -3 -18 -1 -24 9 -20 7 3 16 1 19 -3 2 -5 -12 -12 -33 -15 -20 -4 -50 -9 -67 -12 l-30 -5 23 20 c13 11 30 17 39 14 11 -4 14 -2 11 8 -5 15 -41 14 -46 -1 -2 -5 -9 -7 -17 -4 -7 3 -16 1 -20 -5 -9 -16 -19 -13 -33 10 -13 20 -12 21 12 15 20 -5 24 -3 20 9 -4 8 -1 15 5 15 6 0 11 5 11 10 0 7 -11 5 -27 -3 -16 -7 -38 -11 -49 -9 -25 4 -41 42 -18 42 8 0 14 -4 14 -10 0 -5 7 -10 15 -10 21 0 19 16 -5 40 -11 11 -20 27 -20 35 0 9 -11 20 -24 25 -13 5 -27 14 -32 21 -5 9 -2 10 9 6 27 -10 87 -20 87 -13 0 13 -84 47 -103 42 -12 -3 -27 0 -34 6 -8 7 -13 7 -13 0 0 -6 -13 -7 -32 -3 -41 8 -147 -1 -131 -12 6 -4 18 -5 26 -1 8 3 17 -2 20 -10 4 -9 11 -16 16 -16 6 0 8 8 4 18 -6 16 -5 16 14 -1 11 -9 24 -17 29 -17 5 0 2 5 -6 10 -13 9 -13 10 0 10 8 0 26 -3 39 -7 23 -6 23 -7 5 -14 -15 -6 -12 -8 13 -8 23 -1 43 -11 68 -35 41 -40 43 -46 14 -46 -19 0 -19 -1 -5 -16 20 -20 21 -35 1 -28 -8 4 -15 10 -15 14 0 5 -7 16 -16 24 -13 14 -17 14 -30 2 -8 -8 -11 -22 -8 -30 9 -24 26 -19 19 5 -5 16 -3 20 6 16 8 -2 13 -10 12 -16 -2 -6 2 -11 7 -11 14 0 12 -27 -2 -34 -7 -3 -1 -4 15 -1 34 7 67 -10 67 -34 0 -14 -8 -18 -36 -19 -20 -1 -63 -7 -96 -13 -36 -7 -96 -10 -151 -6 -52 4 -99 2 -107 -3 -10 -7 9 -10 60 -11 l75 -1 -70 -18 c-38 -9 -77 -19 -85 -21 -11 -3 -14 5 -12 31 5 96 3 190 -7 247 l-8 52 36 5 c53 7 254 20 266 17 6 -2 19 -6 30 -8 16 -4 17 -3 5 6 -13 9 -13 12 2 23 21 16 9 42 -15 32 -9 -3 -14 -10 -11 -15 3 -5 -21 -9 -53 -8 -44 1 -52 3 -33 9 24 8 23 8 -7 9 -18 1 -33 -3 -33 -9 0 -6 -31 -7 -80 -3 -57 4 -80 3 -80 -6 0 -6 -7 -11 -15 -11 -8 0 -15 6 -15 14 0 16 124 29 297 30 94 1 123 7 91 19 -10 4 -10 7 0 18 17 19 15 29 -7 29 -14 0 -17 -6 -14 -23 5 -23 2 -24 -54 -26 -32 -1 -107 -6 -168 -11 -136 -12 -158 -12 -151 -1 3 4 67 11 143 15 76 4 156 12 178 16 28 6 13 7 -50 4 -203 -12 -275 -11 -275 3 0 7 0 16 0 21 0 4 35 10 77 13 l78 5 -76 2 c-67 2 -77 5 -82 22 -7 26 17 44 51 37 15 -2 59 -1 97 3 65 7 63 8 -42 7 -63 0 -113 4 -113 9 0 5 61 10 137 11 168 2 163 1 163 11 0 4 -69 6 -153 4 -133 -3 -154 -1 -154 12 0 12 11 15 46 14 25 -1 50 -4 55 -6 12 -7 102 -4 176 5 44 5 50 8 30 13 -22 7 -20 8 18 15 59 11 40 24 -38 26 -64 2 -95 13 -85 29 3 5 20 4 38 -1 51 -14 57 -12 54 21 -4 30 -17 55 -17 30 0 -13 -28 -39 -42 -40 -5 0 -8 7 -8 16 0 13 -3 14 -14 5 -12 -10 -13 -8 -9 8 5 21 28 27 105 30 33 1 37 -2 41 -27 2 -15 4 -2 5 28 1 42 -1 50 -8 33 -6 -16 -14 -21 -26 -16 -14 5 -15 8 -2 17 7 6 20 26 27 43 7 18 17 30 22 27 5 -3 19 -2 30 1 17 6 19 9 8 16 -8 5 -17 3 -22 -4 -7 -9 -10 -9 -14 1 -2 6 -11 12 -19 12 -8 0 -14 7 -14 15 0 8 4 15 10 15 15 0 50 33 44 42 -3 4 0 8 5 8 6 0 11 -7 11 -15 0 -9 6 -12 15 -9 11 4 13 16 10 45 -6 41 4 52 66 69 25 7 29 6 29 -11 0 -24 47 -46 64 -29 7 7 6 10 -2 10 -7 0 -12 6 -12 14 0 8 -6 16 -12 19 -7 2 -11 6 -8 9 6 5 294 78 310 78 5 0 10 -9 10 -20 0 -11 7 -20 15 -20 17 0 20 16 5 25 -16 10 -11 25 9 25 10 0 39 -3 65 -6z m0 -113 c3 -4 7 -60 10 -122 2 -63 7 -122 11 -132 4 -9 2 -24 -5 -32 -9 -10 -9 -15 -1 -15 6 0 11 -7 11 -15 0 -8 -4 -15 -10 -15 -5 0 -10 -10 -10 -22 0 -20 1 -21 13 -4 11 15 14 10 26 -46 7 -35 19 -77 26 -94 10 -24 10 -35 2 -43 -8 -8 1 -22 35 -54 45 -40 138 -159 138 -175 0 -19 70 -73 130 -102 36 -16 77 -40 92 -52 15 -12 40 -21 57 -20 16 0 32 -5 34 -13 3 -7 24 -16 46 -20 49 -8 60 -21 27 -29 -15 -4 -53 5 -98 21 -77 28 -170 37 -201 19 -14 -9 -21 -7 -31 6 -6 9 -23 18 -36 20 -19 2 -26 10 -28 30 -3 25 -7 28 -40 28 -21 0 -48 7 -60 16 -28 19 -29 44 -2 37 11 -3 20 -11 20 -18 0 -12 50 -28 59 -19 14 13 -74 82 -149 116 -144 67 -137 62 -112 66 12 2 29 -4 38 -12 19 -20 54 -21 54 -1 0 15 -38 55 -52 55 -5 0 -26 11 -46 25 l-37 25 32 0 c43 0 47 11 17 51 l-26 34 6 -35 7 -35 -17 30 c-23 40 -35 47 -51 27 -7 -10 -13 -12 -13 -5 0 6 -7 13 -16 15 -9 2 -22 18 -28 37 -6 19 -17 36 -23 38 -15 5 2 -53 23 -78 27 -30 15 -39 -26 -20 -64 28 -94 78 -41 66 27 -6 30 -4 27 17 -1 13 -6 29 -10 36 -6 10 -1 11 18 6 30 -7 34 9 11 40 -14 18 -16 18 -33 3 -23 -21 -34 -12 -26 19 4 15 2 24 -5 24 -6 0 -11 -11 -11 -25 0 -25 -23 -35 -35 -15 -3 6 -1 10 4 10 15 0 14 63 -1 78 -7 7 -22 12 -34 12 -48 0 -33 64 18 75 37 9 42 19 24 53 -17 33 -13 42 20 42 33 0 54 10 54 26 0 8 10 14 25 14 14 0 25 4 25 10 0 5 14 7 33 4 23 -4 28 -3 18 4 -12 9 -9 12 15 17 16 4 43 11 59 15 41 11 43 11 49 1z m-589 -51 c3 -5 2 -10 -4 -10 -5 0 -31 -20 -57 -45 -25 -25 -51 -45 -56 -45 -5 0 -6 -4 -3 -10 3 -5 -36 -52 -87 -104 -93 -94 -148 -138 -148 -118 0 6 8 16 18 22 12 8 14 13 4 17 -9 4 -10 8 -2 18 7 9 8 15 1 19 -6 4 -18 -5 -27 -20 -10 -14 -28 -30 -41 -35 -13 -5 -22 -13 -18 -18 5 -9 -24 -31 -39 -31 -14 0 -4 19 12 24 9 2 -1 3 -23 1 -22 -2 -32 -2 -22 1 9 3 17 10 17 15 0 5 9 9 20 9 11 0 20 5 20 10 0 6 6 10 13 9 19 -3 47 12 47 26 0 7 7 16 16 19 25 9 56 -3 50 -20 -7 -19 0 -18 22 4 131 136 230 251 220 256 -7 3 -3 3 10 0 12 -3 22 -1 22 5 0 14 27 14 35 1z m-108 -30 c-1 -23 -37 -28 -37 -5 0 9 -6 12 -16 8 -15 -6 -15 -8 2 -21 14 -10 16 -16 6 -19 -7 -3 -22 -14 -33 -26 -10 -11 -19 -18 -19 -14 0 4 -8 0 -17 -9 -37 -32 -99 -68 -123 -70 -14 -1 -29 -3 -35 -4 -5 0 1 -8 15 -16 14 -8 17 -13 8 -10 -12 3 -18 0 -18 -10 0 -11 -6 -13 -20 -9 -10 3 -29 1 -42 -6 -16 -9 -23 -9 -26 0 -2 6 -8 8 -14 5 -6 -4 -5 -10 3 -15 11 -7 9 -13 -9 -31 -13 -13 -22 -17 -20 -9 2 7 -5 15 -14 16 -10 2 -18 -1 -18 -6 0 -5 -7 -9 -15 -9 -13 0 -17 -6 -14 -26 1 -10 -24 -24 -41 -24 -13 0 -13 1 0 10 9 6 10 10 3 10 -6 0 -19 3 -27 6 -13 5 -15 2 -9 -12 3 -11 11 -22 17 -26 6 -4 7 -10 4 -14 -4 -3 -14 1 -24 10 -9 9 -24 15 -33 12 -9 -2 -28 -7 -43 -10 -16 -4 -28 -11 -28 -16 0 -5 -7 -7 -15 -4 -21 9 -85 -15 -85 -32 0 -8 -10 -14 -25 -14 -26 0 -25 0 8 30 19 17 40 30 46 30 6 0 11 6 11 13 0 17 44 59 53 50 4 -3 0 -15 -10 -25 -15 -17 -15 -18 6 -18 12 0 19 4 16 10 -3 6 2 10 11 10 10 0 14 3 11 7 -8 7 32 53 46 53 5 0 7 -7 3 -15 -10 -26 10 -16 53 26 35 35 43 39 57 28 13 -11 21 -7 52 26 23 23 30 35 19 31 -12 -4 -17 -2 -15 6 4 12 58 19 58 7 0 -4 -7 -12 -15 -19 -8 -7 -15 -22 -15 -34 1 -21 1 -21 13 -1 23 38 51 65 70 65 11 0 15 -5 11 -11 -4 -8 0 -8 15 0 12 7 25 9 30 6 5 -3 7 4 4 15 -6 21 -15 25 -27 13 -9 -9 -76 -14 -76 -6 0 3 8 12 18 20 16 13 15 14 -5 8 -13 -4 -23 -2 -23 3 0 16 119 37 133 23 8 -8 7 -11 -4 -12 -7 -1 -21 -2 -29 -3 -8 -2 -23 -3 -32 -4 -10 -1 -18 -6 -18 -10 0 -10 67 -8 77 2 3 3 15 6 26 6 16 0 17 -3 7 -15 -7 -8 -8 -15 -2 -15 5 0 15 7 22 15 7 8 19 15 26 15 8 0 14 9 14 20 0 11 5 20 10 20 6 0 10 6 10 14 0 16 19 23 67 25 26 1 31 -3 30 -19z m-129 -17 c-2 -10 -10 -17 -16 -15 -7 1 -12 -2 -12 -8 0 -5 -7 -10 -16 -10 -14 0 -14 3 -4 15 7 8 19 15 27 15 8 0 11 5 8 10 -3 6 -1 10 5 10 6 0 10 -8 8 -17z m507 -22 c9 -16 -35 -35 -48 -22 -6 6 -7 11 -1 11 5 0 2 5 -6 10 -11 7 -7 10 17 10 17 0 34 -4 38 -9z m-89 -28 c-4 -11 -1 -13 14 -8 12 4 20 2 20 -5 0 -6 -4 -8 -10 -5 -5 3 -10 1 -10 -4 0 -18 -14 -13 -28 9 -7 12 -10 25 -7 31 9 14 27 -1 21 -18z m-216 -22 c0 -5 -12 -12 -27 -16 -16 -4 -22 -10 -15 -12 21 -8 13 -33 -10 -33 -19 0 -20 -2 -8 -10 13 -9 13 -11 0 -20 -8 -5 -30 -9 -49 -8 -31 1 -32 3 -15 15 10 7 22 13 27 13 4 0 5 5 2 10 -3 6 1 13 10 16 9 4 21 17 26 30 6 17 16 24 34 24 14 0 25 -4 25 -9z m-473 -13 c-2 -7 -10 -12 -16 -10 -14 3 -14 -11 -1 -24 7 -7 3 -17 -12 -30 -18 -15 -20 -15 -9 -1 15 19 9 22 -20 7 -30 -17 -23 6 12 40 33 31 54 39 46 18z m-101 -44 c-3 -9 -6 -18 -6 -20 0 -2 -7 -4 -15 -4 -18 0 -19 12 -3 28 17 17 31 15 24 -4z m894 -75 c0 -10 -34 -12 -43 -2 -4 3 -2 12 4 20 9 10 15 10 25 2 8 -6 14 -15 14 -20z m-492 -14 c-16 -14 -25 -30 -22 -38 4 -10 -2 -14 -20 -14 -14 0 -26 1 -26 3 0 8 85 82 90 77 3 -2 -7 -15 -22 -28z m-325 -51 c23 -8 9 -54 -17 -54 -20 1 -20 2 -3 14 20 15 22 32 5 39 -7 3 -10 6 -6 6 3 1 13 -1 21 -5z m167 -14 c0 -5 -9 -19 -19 -29 -11 -11 -17 -22 -13 -25 3 -3 0 -6 -7 -6 -7 0 -10 -4 -7 -9 7 -10 -41 -17 -181 -27 -51 -3 -93 -10 -93 -15 0 -4 6 -7 13 -4 6 2 69 6 140 10 106 5 127 4 127 -8 0 -12 -29 -15 -147 -19 -149 -5 -176 -3 -152 13 22 14 -48 11 -114 -5 -32 -7 -60 -10 -63 -5 -3 5 1 11 8 13 52 17 304 46 395 46 36 0 53 4 44 9 -10 6 -5 12 17 22 18 8 26 16 20 20 -6 4 -7 12 -4 18 9 14 36 15 36 1z m154 -27 c28 3 60 1 71 -3 12 -5 -19 -9 -82 -9 -99 -1 -102 0 -85 17 14 15 19 16 31 4 9 -9 30 -11 65 -9z m544 13 c7 1 8 0 2 -3 -7 -3 -7 -10 1 -20 10 -12 10 -16 -2 -24 -21 -13 -23 -12 -35 25 -9 31 -9 34 5 27 9 -5 22 -7 29 -5z m-1066 -124 c-7 -2 -12 -21 -12 -43 0 -21 -4 -39 -10 -39 -11 0 -14 82 -4 93 3 3 13 3 22 -1 10 -4 12 -7 4 -10z m-44 -28 c-4 -35 -5 -36 -46 -38 -24 -1 -42 2 -42 8 1 31 14 55 34 59 54 11 58 9 54 -29z m267 16 c4 -6 -21 -10 -67 -11 -40 -1 -84 -5 -98 -9 -14 -4 44 -5 128 -2 111 4 152 2 152 -6 0 -7 -6 -12 -12 -12 -9 0 -9 -3 -2 -8 14 -9 26 -42 15 -42 -5 0 -12 7 -15 16 -6 15 -23 16 -156 10 -160 -8 -157 -9 -144 41 5 17 15 23 48 26 87 8 145 7 151 -3z m109 -1 c-3 -5 -16 -9 -29 -9 -13 0 -26 4 -29 9 -3 5 10 9 29 9 19 0 32 -4 29 -9z m876 -50 c0 -5 -4 -9 -10 -9 -14 0 -7 -32 13 -63 9 -15 17 -31 17 -37 0 -5 5 -10 12 -10 6 0 9 -3 6 -6 -8 -7 -104 42 -114 57 -5 8 -3 9 6 4 8 -5 4 5 -8 22 l-22 31 22 14 c22 15 78 12 78 -3z m-965 -29 c4 -6 -7 -10 -27 -10 -18 -1 -68 -3 -110 -5 -45 -3 -78 0 -78 5 0 5 33 11 73 13 39 1 86 4 104 5 17 1 35 -2 38 -8z m-285 -10 c0 -5 -6 -11 -12 -11 -7 -1 28 -5 77 -9 50 -5 122 -4 160 1 113 14 168 12 161 -6 -3 -8 -1 -15 4 -15 6 0 10 -4 10 -10 0 -6 -87 -10 -242 -9 -138 1 -232 4 -218 9 l25 8 -25 2 c-23 1 -23 2 -5 10 19 8 19 9 -2 9 -14 1 -23 7 -23 16 0 11 12 15 45 15 25 0 45 -4 45 -10z m29 -100 c4 0 5 -26 3 -59 -4 -57 -4 -58 24 -64 16 -3 33 -3 37 0 5 3 7 33 5 67 l-3 61 55 2 c41 1 50 -1 38 -8 -16 -9 -18 -27 -18 -139 0 -162 18 -175 23 -17 l3 112 2 -117 c2 -107 0 -118 -16 -118 -10 0 -69 17 -132 38 l-115 39 -3 63 c-2 49 0 66 12 72 9 5 16 16 16 23 0 21 33 54 48 49 8 -2 17 -4 21 -4z m44 3 c-7 -2 -13 -21 -13 -41 0 -24 -3 -33 -10 -26 -16 16 -1 74 19 73 10 0 11 -2 4 -6z m328 -32 c8 -205 9 -197 -9 -175 -10 11 -22 19 -28 17 -7 -2 -9 17 -6 54 2 32 -1 74 -6 93 -9 30 -10 20 -11 -64 -1 -106 -9 -128 -12 -33 -2 45 -5 57 -16 53 -10 -4 -13 0 -11 12 2 9 10 16 16 15 18 -4 14 34 -4 41 -29 11 -6 21 40 18 42 -4 46 -6 47 -31z m-141 -121 l0 -127 24 2 c14 2 33 -4 43 -12 16 -13 14 -14 -27 -8 -24 3 -49 10 -56 16 -8 7 -14 6 -17 -3 -2 -7 -8 -9 -13 -5 -5 5 -2 14 7 20 12 9 18 33 21 84 2 39 0 69 -4 67 -4 -3 -8 -26 -8 -51 0 -26 -3 -43 -7 -39 -5 4 -8 49 -8 100 0 90 0 92 23 88 21 -4 22 -8 22 -132z m845 99 c48 -69 130 -137 271 -226 16 -10 13 -10 -15 -3 -19 5 -46 7 -60 4 -18 -4 -22 -3 -13 4 14 9 -46 24 -156 38 -37 5 -55 12 -59 23 -2 9 -8 23 -12 31 -4 8 -4 35 1 60 5 25 6 60 3 78 -8 43 6 40 40 -9z m213 10 c32 -12 27 -29 -8 -29 -32 0 -80 25 -80 42 0 10 45 3 88 -13z m62 -4 c33 -19 49 -19 24 0 -25 19 -15 19 27 0 26 -11 29 -14 13 -15 -30 0 -36 -11 -16 -27 15 -12 15 -13 -8 -11 -14 2 -24 9 -22 16 1 6 -4 12 -11 12 -8 0 -22 9 -32 20 -21 23 -11 25 25 5z m-1060 -149 c0 -66 -3 -73 -29 -57 -11 7 -10 13 3 34 10 14 13 27 7 29 -8 3 -15 43 -12 76 1 10 4 10 16 -2 10 -10 15 -35 15 -80z m1123 77 c2 7 6 7 10 1 3 -5 2 -16 -3 -23 -10 -18 -60 -6 -60 14 0 11 5 12 24 5 17 -6 26 -5 29 3z m26 -59 c34 -7 42 -24 11 -24 -11 0 -20 4 -20 9 0 5 -9 7 -20 4 -11 -3 -20 0 -20 6 0 13 6 13 49 5z m111 -24 c0 -5 -6 -15 -14 -22 -11 -11 -9 -15 13 -25 l26 -11 -32 -1 c-31 -1 -123 32 -123 44 0 4 9 4 19 0 11 -3 22 -1 26 5 4 7 19 9 36 5 18 -4 29 -3 29 4 0 6 5 11 10 11 6 0 10 -4 10 -10z m-1181 -50 c12 0 13 -2 2 -12 -10 -11 -15 -9 -27 6 -8 11 -14 27 -13 35 0 11 4 8 11 -6 6 -13 18 -23 27 -23z m-436 17 c7 4 6 -1 -2 -10 -14 -18 -51 -23 -51 -7 0 13 34 31 38 19 2 -5 9 -6 15 -2z m61 -16 c19 -7 19 -8 -2 -13 -12 -4 -20 -2 -16 3 8 14 -14 11 -44 -7 l-27 -16 24 21 c25 22 34 24 65 12z m1786 -12 c0 -7 10 -9 25 -5 25 6 25 6 9 -41 -5 -16 -7 -16 -14 3 -7 17 -15 21 -39 18 -34 -4 -41 9 -13 25 22 14 32 13 32 0z m-1752 -13 c-23 -10 -26 -14 -15 -25 10 -11 7 -12 -13 -6 -14 5 -33 8 -43 9 -34 2 -21 20 16 21 20 1 40 5 44 8 3 4 13 7 22 6 9 0 4 -6 -11 -13z m2132 5 c16 -4 21 -10 13 -14 -16 -10 -154 4 -147 14 6 10 98 10 134 0z m-1120 -11 c-8 -5 -33 -9 -55 -9 -35 1 -37 2 -15 9 14 4 39 8 55 9 23 0 26 -2 15 -9z m-682 -28 c3 -17 -2 -22 -17 -22 -14 0 -21 6 -21 18 0 38 33 41 38 4z m792 14 c-8 -7 -28 -17 -45 -21 -29 -6 -29 -6 -11 14 11 12 31 21 45 21 22 0 23 -2 11 -14z m124 -12 c21 -5 27 -4 22 5 -9 15 -8 14 76 -9 82 -23 94 -30 50 -30 -18 0 -32 4 -32 10 0 5 -13 7 -32 3 -22 -4 -29 -3 -24 5 4 7 2 12 -3 12 -6 0 -11 -7 -11 -16 0 -14 -3 -14 -15 -4 -9 7 -27 10 -45 6 -23 -4 -30 -2 -30 10 0 12 -5 14 -17 9 -10 -4 -29 -10 -43 -12 -25 -5 -25 -5 -5 11 20 16 45 16 109 0z m760 -9 c17 -13 17 -15 3 -21 -10 -3 -29 -3 -43 0 -21 6 -24 9 -14 21 15 19 30 18 54 0z m-1714 -55 c0 -5 -6 -10 -12 -10 -7 -1 -47 -3 -88 -5 -41 -3 -70 -2 -64 1 10 4 94 17 152 23 6 0 12 -3 12 -9z"/>
    <path d="M1526 1402 c-3 -4 11 -9 30 -9 19 -1 34 3 34 8 0 11 -57 12 -64 1z"/>
    <path d="M1425 1351 c-6 -11 33 -36 42 -27 7 7 -16 36 -28 36 -4 0 -10 -4 -14 -9z"/>
    <path d="M1108 1011 c2 -18 11 -31 23 -34 22 -6 26 11 4 19 -8 4 -15 15 -15 25 0 10 -4 19 -8 19 -5 0 -7 -13 -4 -29z"/>
    <path d="M1085 849 c-33 -3 -48 -6 -32 -7 15 -1 27 -6 27 -12 0 -5 -39 -10 -87 -10 -129 -2 -150 -4 -160 -14 -4 -5 46 -6 120 -3 92 3 127 2 127 -7 0 -6 17 -11 40 -11 41 0 54 10 23 18 -15 4 -15 5 2 6 14 1 21 8 21 21 0 25 -8 27 -81 19z"/>
    <path d="M1073 763 c-5 -1 -61 -5 -126 -8 -65 -4 -116 -9 -114 -12 8 -7 337 9 337 17 0 6 -75 8 -97 3z"/>
    <path d="M1240 763 c0 -5 25 -8 55 -8 30 0 55 3 55 8 0 4 -25 7 -55 7 -30 0 -55 -3 -55 -7z"/>
    <path d="M1199 653 c-13 -15 -11 -16 11 -10 14 4 35 7 48 7 13 0 20 4 17 10 -10 16 -61 12 -76 -7z"/>
    <path d="M1340 628 c0 -5 9 -8 20 -8 11 0 20 -5 20 -11 0 -5 5 -7 10 -4 22 14 10 34 -20 32 -16 -1 -30 -5 -30 -9z"/>
    <path d="M1300 540 c0 -6 -4 -8 -10 -5 -5 3 -18 1 -27 -4 -10 -6 -13 -11 -8 -11 6 0 19 -16 29 -35 17 -32 20 -33 32 -17 12 15 15 15 24 2 13 -19 13 -37 0 -45 -5 -3 -10 -11 -10 -17 0 -7 6 -6 15 2 8 7 15 9 15 4 0 -5 7 2 16 14 15 22 15 25 -3 44 -55 62 -73 79 -73 68z"/>
    <path d="M1724 1246 c-8 -45 4 -66 23 -41 15 21 18 39 4 31 -4 -3 -6 6 -3 19 2 14 0 25 -6 25 -6 0 -14 -15 -18 -34z"/>
    <path d="M1530 1185 c0 -8 9 -19 20 -25 15 -8 20 -8 20 3 0 14 -19 37 -32 37 -4 0 -8 -7 -8 -15z"/>
    <path d="M1500 1140 c0 -12 62 -52 69 -44 6 5 -49 53 -61 54 -5 0 -8 -5 -8 -10z"/>
    <path d="M1485 1110 c3 -6 -1 -13 -10 -16 -14 -6 -14 -8 1 -25 19 -21 36 -17 27 6 -3 8 0 15 7 15 10 0 10 3 0 15 -14 17 -35 21 -25 5z"/>
    <path d="M1696 1053 c-9 -10 -7 -40 6 -68 16 -35 28 -31 28 11 0 34 -21 70 -34 57z"/>
    <path d="M1566 1027 c13 -45 32 -71 51 -72 13 -1 20 4 19 14 -2 25 -35 68 -57 74 -17 4 -19 2 -13 -16z"/>
    <path d="M567 763 c18 -2 50 -2 70 0 21 2 7 4 -32 4 -38 0 -55 -2 -38 -4z"/>
    <path d="M438 683 c18 -2 45 -2 60 0 15 2 0 4 -33 4 -33 0 -45 -2 -27 -4z"/>
    <path d="M773 515 c0 -38 2 -53 4 -32 2 20 2 52 0 70 -2 17 -4 1 -4 -38z"/>
  </g>
  <path style="stroke: rgb(0, 0, 0);" d="M 232.981 283.189 L 219.088 252.912 L 210.699 221.586 L 212.01 220.799 C 212.01 220.799 218.432 227.877 219.874 232.465 C 221.316 237.053 230.098 275.456 236.782 282.403 C 243.466 289.35 232.981 282.927 232.981 283.189 Z"/>
  <path style="stroke: rgb(0, 0, 0);" d="M 203.185 224.334 C 203.722 227.305 206.453 231.383 205.984 232.164 C 203.904 235.631 205.736 240.104 205.736 244.144 C 205.736 247.39 205.965 251.067 207.409 253.955 C 208.827 256.791 210.442 259.932 211.423 262.875 C 212.039 264.724 211.563 267.171 212.426 268.896 C 212.614 269.271 212.388 269.843 212.649 270.234 C 213.685 271.788 214.41 273.51 215.548 275.028 C 216.514 276.317 218.185 277.625 218.893 279.042 C 219.469 280.194 220.618 281.184 221.346 282.275 C 223.427 285.398 224.367 288.853 228.816 288.853 C 229.344 288.853 233.151 292.361 233.651 292.194 C 234.426 291.936 235.188 286.712 235.188 286.132 C 235.188 285.716 233.958 283.001 234.165 282.588 C 234.376 282.165 231.492 281.531 231.492 281.049 C 231.492 278.881 231.381 276.981 230.6 275.028 C 229.629 272.6 229.105 269.952 228.147 267.558 C 226.007 262.209 223.219 256.803 220.9 251.391 C 219.663 248.504 218.275 245.611 217.109 242.694 C 216.707 241.689 216.475 240.461 215.882 239.572 C 215.519 239.028 215.417 237.765 215.325 237.119 C 215.126 235.726 214.354 232.936 213.652 231.768 C 212.798 230.343 210.395 218.826 208.581 218.826"/>
</svg>